<svg xmlns="http://www.w3.org/2000/svg" width="43" height="40" fill="none" viewBox="0 0 43 40"><g opacity=".4"><circle cx="41.428" cy=".952" r=".952" fill="#fff" transform="rotate(90 41.4285 0.952374)"/><circle cx="41.429" cy="8.571" r=".952" fill="#fff" transform="rotate(90 41.429 8.57139)"/><circle cx="41.429" cy="16.19" r=".952" fill="#fff" transform="rotate(90 41.429 16.1903)"/><circle cx="41.429" cy="23.809" r=".952" fill="#fff" transform="rotate(90 41.429 23.8093)"/><circle cx="41.429" cy="31.428" r=".952" fill="#fff" transform="rotate(90 41.429 31.4283)"/><circle cx="41.429" cy="39.047" r=".952" fill="#fff" transform="rotate(90 41.429 39.0472)"/><circle cx="33.333" cy=".952" r=".952" fill="#fff" transform="rotate(90 33.3333 0.952374)"/><circle cx="33.334" cy="8.571" r=".952" fill="#fff" transform="rotate(90 33.3338 8.57139)"/><circle cx="33.334" cy="16.19" r=".952" fill="#fff" transform="rotate(90 33.3338 16.1903)"/><circle cx="33.334" cy="23.809" r=".952" fill="#fff" transform="rotate(90 33.3338 23.8093)"/><circle cx="33.334" cy="31.428" r=".952" fill="#fff" transform="rotate(90 33.3338 31.4283)"/><circle cx="33.334" cy="39.047" r=".952" fill="#fff" transform="rotate(90 33.3338 39.0472)"/><circle cx="25.238" cy=".952" r=".952" fill="#fff" transform="rotate(90 25.2381 0.952374)"/><circle cx="25.238" cy="8.571" r=".952" fill="#fff" transform="rotate(90 25.2385 8.57139)"/><circle cx="25.238" cy="16.19" r=".952" fill="#fff" transform="rotate(90 25.2385 16.1903)"/><circle cx="25.238" cy="23.809" r=".952" fill="#fff" transform="rotate(90 25.2385 23.8093)"/><circle cx="25.238" cy="31.428" r=".952" fill="#fff" transform="rotate(90 25.2385 31.4283)"/><circle cx="25.238" cy="39.047" r=".952" fill="#fff" transform="rotate(90 25.2385 39.0472)"/><circle cx="17.142" cy=".952" r=".952" fill="#fff" transform="rotate(90 17.1424 0.952374)"/><circle cx="17.143" cy="8.571" r=".952" fill="#fff" transform="rotate(90 17.1433 8.57139)"/><circle cx="17.143" cy="16.19" r=".952" fill="#fff" transform="rotate(90 17.1433 16.1903)"/><circle cx="17.143" cy="23.809" r=".952" fill="#fff" transform="rotate(90 17.1433 23.8093)"/><circle cx="17.143" cy="31.428" r=".952" fill="#fff" transform="rotate(90 17.1433 31.4283)"/><circle cx="17.143" cy="39.047" r=".952" fill="#fff" transform="rotate(90 17.1433 39.0472)"/><circle cx="9.048" cy=".952" r=".952" fill="#fff" transform="rotate(90 9.04811 0.952374)"/><circle cx="9.049" cy="8.571" r=".952" fill="#fff" transform="rotate(90 9.0486 8.57139)"/><circle cx="9.049" cy="16.19" r=".952" fill="#fff" transform="rotate(90 9.0486 16.1903)"/><circle cx="9.049" cy="23.809" r=".952" fill="#fff" transform="rotate(90 9.0486 23.8093)"/><circle cx="9.049" cy="31.428" r=".952" fill="#fff" transform="rotate(90 9.0486 31.4283)"/><circle cx="9.049" cy="39.047" r=".952" fill="#fff" transform="rotate(90 9.0486 39.0472)"/><circle cx=".952" cy=".952" r=".952" fill="#fff" transform="rotate(90 0.952411 0.952374)"/><circle cx=".953" cy="8.571" r=".952" fill="#fff" transform="rotate(90 0.952899 8.57139)"/><circle cx=".953" cy="16.19" r=".952" fill="#fff" transform="rotate(90 0.952899 16.1903)"/><circle cx=".953" cy="23.809" r=".952" fill="#fff" transform="rotate(90 0.952899 23.8093)"/><circle cx=".953" cy="31.428" r=".952" fill="#fff" transform="rotate(90 0.952899 31.4283)"/><circle cx=".953" cy="39.047" r=".952" fill="#fff" transform="rotate(90 0.952899 39.0472)"/></g></svg>